<svg id="visual" viewBox="0 0 675 900" width="675" height="900" xmlns="http://www.w3.org/2000/svg" xmlns:xlink="http://www.w3.org/1999/xlink" version="1.1"><path d="M0 637L16 641.5C32 646 64 655 96.2 657C128.3 659 160.7 654 192.8 648C225 642 257 635 289.2 630.5C321.3 626 353.7 624 385.8 631.5C418 639 450 656 482.2 663.5C514.3 671 546.7 669 578.8 658.8C611 648.7 643 630.3 659 621.2L675 612L675 901L659 901C643 901 611 901 578.8 901C546.7 901 514.3 901 482.2 901C450 901 418 901 385.8 901C353.7 901 321.3 901 289.2 901C257 901 225 901 192.8 901C160.7 901 128.3 901 96.2 901C64 901 32 901 16 901L0 901Z" fill="#fcb103"></path><path d="M0 685L16 687.3C32 689.7 64 694.3 96.2 695.8C128.3 697.3 160.7 695.7 192.8 690C225 684.3 257 674.7 289.2 675.2C321.3 675.7 353.7 686.3 385.8 692.2C418 698 450 699 482.2 694.8C514.3 690.7 546.7 681.3 578.8 678.5C611 675.7 643 679.3 659 681.2L675 683L675 901L659 901C643 901 611 901 578.8 901C546.7 901 514.3 901 482.2 901C450 901 418 901 385.8 901C353.7 901 321.3 901 289.2 901C257 901 225 901 192.8 901C160.7 901 128.3 901 96.2 901C64 901 32 901 16 901L0 901Z" fill="#fec04f"></path><path d="M0 705L16 712.2C32 719.3 64 733.7 96.2 741C128.3 748.3 160.7 748.7 192.8 741.3C225 734 257 719 289.2 717.2C321.3 715.3 353.7 726.7 385.8 731.5C418 736.3 450 734.7 482.2 730.8C514.3 727 546.7 721 578.8 723C611 725 643 735 659 740L675 745L675 901L659 901C643 901 611 901 578.8 901C546.7 901 514.3 901 482.2 901C450 901 418 901 385.8 901C353.7 901 321.3 901 289.2 901C257 901 225 901 192.8 901C160.7 901 128.3 901 96.2 901C64 901 32 901 16 901L0 901Z" fill="#ffd07d"></path><path d="M0 779L16 777.2C32 775.3 64 771.7 96.2 770C128.3 768.3 160.7 768.7 192.8 766.7C225 764.7 257 760.3 289.2 760C321.3 759.7 353.7 763.3 385.8 764C418 764.7 450 762.3 482.2 765.2C514.3 768 546.7 776 578.8 779.8C611 783.7 643 783.3 659 783.2L675 783L675 901L659 901C643 901 611 901 578.8 901C546.7 901 514.3 901 482.2 901C450 901 418 901 385.8 901C353.7 901 321.3 901 289.2 901C257 901 225 901 192.8 901C160.7 901 128.3 901 96.2 901C64 901 32 901 16 901L0 901Z" fill="#ffdfa8"></path><path d="M0 817L16 818.2C32 819.3 64 821.7 96.2 821.2C128.3 820.7 160.7 817.3 192.8 816C225 814.7 257 815.3 289.2 814.5C321.3 813.7 353.7 811.3 385.8 807.8C418 804.3 450 799.7 482.2 801.7C514.3 803.7 546.7 812.3 578.8 816.2C611 820 643 819 659 818.5L675 818L675 901L659 901C643 901 611 901 578.8 901C546.7 901 514.3 901 482.2 901C450 901 418 901 385.8 901C353.7 901 321.3 901 289.2 901C257 901 225 901 192.8 901C160.7 901 128.3 901 96.2 901C64 901 32 901 16 901L0 901Z" fill="#ffefd3"></path><path d="M0 859L16 855.3C32 851.7 64 844.3 96.2 843.3C128.3 842.3 160.7 847.7 192.8 851.2C225 854.7 257 856.3 289.2 855.3C321.3 854.3 353.7 850.7 385.8 850.5C418 850.3 450 853.7 482.2 854.7C514.3 855.7 546.7 854.3 578.8 854.3C611 854.3 643 855.7 659 856.3L675 857L675 901L659 901C643 901 611 901 578.8 901C546.7 901 514.3 901 482.2 901C450 901 418 901 385.8 901C353.7 901 321.3 901 289.2 901C257 901 225 901 192.8 901C160.7 901 128.3 901 96.2 901C64 901 32 901 16 901L0 901Z" fill="#ffffff"></path></svg>